<svg width="31.000000" height="17.750000" viewBox="0 0 31 17.75" fill="none" xmlns="http://www.w3.org/2000/svg" xmlns:xlink="http://www.w3.org/1999/xlink">
	<desc>
			Created with Pixso.
	</desc>
	<defs/>
	<path d="M1.25 0L29.75 0C30.44 0 31 0.55 31 1.25C31 1.94 30.44 2.5 29.75 2.5L1.25 2.5C0.55 2.5 0 1.94 0 1.25C0 0.55 0.55 0 1.25 0Z" fill="#FFFFFF" fill-opacity="1.000000" fill-rule="nonzero"/>
	<path d="M1.34 7.65L29.75 7.65C30.44 7.65 31 8.21 31 8.9C31 9.59 30.44 10.15 29.75 10.15L1.34 10.15C0.65 10.15 0.09 9.59 0.09 8.9C0.09 8.21 0.65 7.65 1.34 7.65Z" fill="#FFFFFF" fill-opacity="1.000000" fill-rule="nonzero"/>
	<path d="M1.34 15.25L29.75 15.25C30.44 15.25 31 15.8 31 16.5C31 17.19 30.44 17.75 29.75 17.75L1.34 17.75C0.65 17.75 0.09 17.19 0.09 16.5C0.09 15.8 0.65 15.25 1.34 15.25Z" fill="#FFFFFF" fill-opacity="1.000000" fill-rule="nonzero"/>
</svg>
