<svg width="84.211693" height="100.000000" viewBox="0 0 84.2117 100" fill="none" xmlns="http://www.w3.org/2000/svg" xmlns:xlink="http://www.w3.org/1999/xlink">
	<desc>
			Created with Pixso.
	</desc>
	<defs/>
	<path d="M0 0L7.66 90L42.1 100L76.53 90L84.21 0L0 0Z" fill="#FF5722" fill-opacity="1.000000" fill-rule="nonzero"/>
	<path d="M67.57 29.43L42.1 29.43L27.21 29.43L28.18 40.73L42.1 40.73L66.61 40.73L63.72 74.63L42.1 80.9L42.08 80.91L20.48 74.63L18.97 56.9L29.55 56.9L30.34 66.1L42.09 69.42L42.1 69.41L53.86 66.1L55.09 51.78L42.1 51.78L18.53 51.78L15.68 18.4L42.1 18.4L68.51 18.4L67.57 29.43Z" fill="#FAFAFA" fill-opacity="1.000000" fill-rule="nonzero"/>
</svg>
