<svg width="96.241943" height="100.000000" viewBox="0 0 96.2419 100" fill="none" xmlns="http://www.w3.org/2000/svg" xmlns:xlink="http://www.w3.org/1999/xlink">
	<desc>
			Created with Pixso.
	</desc>
	<defs/>
	<path d="M0 0L96.24 0L96.24 100L0 100L0 0Z" fill="#F7DF1E" fill-opacity="1.000000" fill-rule="nonzero"/>
	<path d="M25.3 83.56L32.67 78.93C34.09 81.55 35.38 83.76 38.48 83.76C41.45 83.76 43.33 82.56 43.33 77.86L43.33 45.9L52.37 45.9L52.37 77.99C52.37 87.72 46.88 92.15 38.87 92.15C31.63 92.15 27.43 88.26 25.3 83.56L25.3 83.56Z" fill="#000000" fill-opacity="1.000000" fill-rule="nonzero"/>
	<path d="M57.28 82.56L64.65 78.13C66.58 81.41 69.1 83.83 73.56 83.83C77.31 83.83 79.7 81.88 79.7 79.2C79.7 75.98 77.24 74.84 73.11 72.96L70.85 71.95C64.32 69.06 59.99 65.44 59.99 57.79C59.99 50.74 65.16 45.37 73.24 45.37C78.99 45.37 83.12 47.45 86.09 52.89L79.05 57.58C77.5 54.7 75.82 53.56 73.24 53.56C70.59 53.56 68.91 55.3 68.91 57.58C68.91 60.4 70.59 61.55 74.47 63.29L76.73 64.3C84.41 67.72 88.74 71.21 88.74 79.06C88.74 87.52 82.35 92.15 73.76 92.15C65.36 92.15 59.93 87.99 57.28 82.56L57.28 82.56Z" fill="#000000" fill-opacity="1.000000" fill-rule="nonzero"/>
</svg>
