<svg width="85.477242" height="99.814453" viewBox="0 0 85.4772 99.8145" fill="none" xmlns="http://www.w3.org/2000/svg" xmlns:xlink="http://www.w3.org/1999/xlink">
	<desc>
			Created with Pixso.
	</desc>
	<defs/>
	<path id="Vector" d="M42.73 99.81C41.41 99.81 40.17 99.44 39.02 98.8L27.25 91.56C25.48 90.55 26.36 90.18 26.89 90C29.28 89.17 29.73 88.99 32.2 87.52C32.47 87.34 32.82 87.43 33.09 87.61L42.11 93.21C42.47 93.39 42.91 93.39 43.18 93.21L78.48 72.02C78.84 71.84 79.01 71.47 79.01 71.02L79.01 28.74C79.01 28.28 78.84 27.92 78.48 27.73L43.18 6.64C42.82 6.46 42.38 6.46 42.11 6.64L6.81 27.73C6.45 27.92 6.28 28.38 6.28 28.74L6.28 71.02C6.28 71.38 6.45 71.84 6.81 72.02L16.45 77.8C21.67 80.55 24.95 77.34 24.95 74.13L24.95 32.41C24.95 31.86 25.39 31.31 26.01 31.31L30.52 31.31C31.05 31.31 31.58 31.77 31.58 32.41L31.58 74.13C31.58 81.38 27.78 85.6 21.14 85.6C19.11 85.6 17.52 85.6 13 83.3L3.71 77.8C1.41 76.43 0 73.86 0 71.11L0 28.83C0 26.08 1.41 23.52 3.71 22.14L39.02 0.96C41.23 -0.33 44.24 -0.33 46.45 0.96L81.76 22.14C84.06 23.52 85.47 26.08 85.47 28.83L85.47 71.11C85.47 73.86 84.06 76.43 81.76 77.8L46.45 98.98C45.3 99.53 43.97 99.81 42.73 99.81ZM53.62 70.74C38.13 70.74 34.95 63.4 34.95 57.17C34.95 56.62 35.39 56.07 36.01 56.07L40.61 56.07C41.14 56.07 41.58 56.44 41.58 56.99C42.29 61.85 44.33 64.23 53.71 64.23C61.14 64.23 64.32 62.49 64.32 58.36C64.32 55.98 63.44 54.24 51.85 53.04C42.2 52.03 36.19 49.83 36.19 41.86C36.19 34.43 42.2 30.03 52.29 30.03C63.62 30.03 69.19 34.06 69.9 42.86C69.9 43.14 69.81 43.41 69.63 43.69C69.46 43.87 69.19 44.06 68.93 44.06L64.32 44.06C63.88 44.06 63.44 43.69 63.35 43.23C62.29 38.19 59.55 36.54 52.29 36.54C44.15 36.54 43.18 39.47 43.18 41.67C43.18 44.33 44.33 45.16 55.3 46.62C66.18 48.09 71.31 50.2 71.31 58.09C71.23 66.16 64.86 70.74 53.62 70.74Z" fill="#539E43" fill-opacity="1.000000" fill-rule="nonzero"/>
</svg>
