<svg width="105.796555" height="99.458008" viewBox="0 0 105.797 99.458" fill="none" xmlns="http://www.w3.org/2000/svg" xmlns:xlink="http://www.w3.org/1999/xlink">
	<desc>
			Created with Pixso.
	</desc>
	<defs/>
	<path d="M0 49.55C0 57.9 7.8 65.7 20.1 70.09C17.64 83.02 19.66 93.44 26.39 97.51C33.31 101.68 43.62 98.79 53.41 89.84C62.95 98.43 72.59 101.81 79.32 97.73C86.23 93.55 88.34 82.42 85.81 69.09C98.63 64.66 105.79 58.01 105.79 49.55C105.79 41.39 97.98 34.33 85.84 29.96C88.56 16.07 86.26 5.91 79.24 1.68C72.48 -2.4 62.73 1.15 53.05 9.96C42.98 0.61 33.32 -2.24 26.31 2C19.56 6.09 17.63 16.7 20.1 29.87C8.21 34.2 0 41.42 0 49.55Z" fill="#FFFFFF" fill-opacity="1.000000" fill-rule="nonzero"/>
	<path d="M83.27 34.29C82.3 33.94 81.29 33.61 80.25 33.3C80.42 32.57 80.57 31.85 80.71 31.14C83 19.52 81.51 10.16 76.39 7.08C71.49 4.12 63.48 7.2 55.38 14.57C54.6 15.28 53.82 16.03 53.04 16.81C52.52 16.29 52 15.79 51.48 15.31C43 7.43 34.49 4.11 29.39 7.21C24.49 10.17 23.04 18.97 25.1 29.98C25.3 31.05 25.53 32.13 25.8 33.24C24.59 33.59 23.43 33.98 22.32 34.38C12.37 38.01 6.02 43.69 6.02 49.59C6.02 55.67 12.84 61.78 23.2 65.48C24.02 65.78 24.87 66.05 25.74 66.31C25.46 67.51 25.21 68.68 25 69.82C23.04 80.64 24.57 89.24 29.46 92.18C34.5 95.22 42.97 92.1 51.21 84.56C51.86 83.97 52.52 83.33 53.17 82.67C54.02 83.53 54.87 84.34 55.71 85.1C63.7 92.28 71.58 95.18 76.46 92.23C81.5 89.18 83.14 79.95 81.01 68.72C80.85 67.86 80.66 66.98 80.45 66.09C81.04 65.91 81.63 65.72 82.2 65.52C92.97 61.79 99.98 55.75 99.98 49.59C99.98 43.67 93.42 37.95 83.27 34.29Z" fill="#53C1DE" fill-opacity="1.000000" fill-rule="nonzero"/>
	<path d="M80.93 61.54C80.42 61.71 79.89 61.89 79.36 62.05C78.17 58.12 76.56 53.93 74.6 49.61C76.47 45.38 78.01 41.25 79.17 37.34C80.13 37.63 81.06 37.94 81.96 38.26C90.66 41.39 95.96 46.02 95.96 49.59C95.96 53.38 90.23 58.31 80.93 61.54ZM77.07 69.53C78.01 74.5 78.15 78.99 77.53 82.5C76.97 85.65 75.84 87.75 74.45 88.6C71.49 90.39 65.16 88.06 58.33 81.91C57.55 81.21 56.76 80.46 55.97 79.66C58.61 76.63 61.26 73.11 63.84 69.21C68.38 68.78 72.67 68.1 76.57 67.15C76.76 67.96 76.93 68.76 77.07 69.53ZM38.05 88.29C35.16 89.35 32.85 89.39 31.46 88.55C28.5 86.76 27.26 79.86 28.95 70.6C29.14 69.54 29.37 68.46 29.63 67.34C33.48 68.23 37.74 68.87 42.29 69.26C44.89 73.08 47.62 76.6 50.36 79.68C49.76 80.28 49.16 80.86 48.57 81.4C44.92 84.73 41.27 87.1 38.05 88.29ZM24.5 61.51C19.92 59.87 16.13 57.75 13.54 55.42C11.21 53.34 10.03 51.27 10.03 49.59C10.03 46.01 15.13 41.45 23.64 38.34C24.67 37.97 25.75 37.61 26.87 37.28C28.05 41.28 29.59 45.46 31.45 49.69C29.57 53.98 28 58.23 26.82 62.27C26.02 62.03 25.24 61.78 24.5 61.51ZM29.04 29.18C27.27 19.74 28.45 12.62 31.4 10.84C34.54 8.93 41.49 11.65 48.82 18.45C49.29 18.88 49.76 19.34 50.23 19.81C47.5 22.87 44.8 26.36 42.22 30.17C37.81 30.59 33.58 31.28 29.69 32.2C29.44 31.18 29.23 30.17 29.04 29.18ZM69.57 39.64C68.64 37.96 67.69 36.32 66.71 34.73C69.71 35.12 72.58 35.65 75.28 36.29C74.47 39.01 73.46 41.84 72.27 44.75C71.42 43.06 70.52 41.36 69.57 39.64ZM53.04 22.81C54.89 24.91 56.75 27.25 58.57 29.79C56.73 29.7 54.87 29.65 53 29.65C51.14 29.65 49.29 29.7 47.47 29.79C49.29 27.27 51.16 24.93 53.04 22.81ZM36.41 39.67C35.48 41.35 34.59 43.05 33.76 44.75C32.59 41.85 31.59 39 30.77 36.25C33.45 35.62 36.31 35.11 39.29 34.72C38.3 36.33 37.34 37.98 36.41 39.67L36.41 39.67ZM39.37 64.75C36.3 64.39 33.4 63.9 30.72 63.29C31.55 60.49 32.57 57.58 33.76 54.62C34.6 56.32 35.49 58.02 36.42 59.7L36.42 59.7C37.38 61.42 38.36 63.11 39.37 64.75ZM53.15 76.66C51.25 74.51 49.35 72.14 47.5 69.58C49.3 69.66 51.13 69.7 53 69.7C54.91 69.7 56.81 69.65 58.67 69.56C56.84 72.16 54.99 74.54 53.15 76.66ZM72.31 54.47C73.57 57.46 74.62 60.36 75.47 63.11C72.74 63.76 69.8 64.29 66.7 64.67C67.68 63.06 68.64 61.39 69.59 59.68C70.54 57.94 71.45 56.2 72.31 54.47ZM66.11 57.58C64.64 60.24 63.13 62.78 61.6 65.18C58.81 65.39 55.93 65.5 53 65.5C50.07 65.5 47.23 65.4 44.49 65.22C42.9 62.79 41.36 60.24 39.9 57.6L39.9 57.6C38.44 54.97 37.1 52.32 35.89 49.69C37.1 47.04 38.44 44.39 39.89 41.77L39.89 41.77C41.34 39.14 42.86 36.6 44.44 34.18C47.24 33.96 50.1 33.85 53 33.85L53 33.85C55.91 33.85 58.77 33.96 61.57 34.19C63.12 36.58 64.64 39.11 66.1 41.74C67.57 44.4 68.92 47.04 70.15 49.63C68.93 52.26 67.58 54.92 66.11 57.58ZM74.39 10.71C77.53 12.61 78.76 20.26 76.78 30.29C76.66 30.93 76.51 31.59 76.36 32.25C72.46 31.31 68.23 30.61 63.8 30.17C61.21 26.33 58.54 22.83 55.85 19.81C56.58 19.08 57.3 18.39 58.02 17.74C64.95 11.42 71.43 8.93 74.39 10.71Z" fill="#FFFFFF" fill-opacity="1.000000" fill-rule="nonzero"/>
	<path d="M53 40.81C57.63 40.81 61.39 44.74 61.39 49.59C61.39 54.43 57.63 58.36 53 58.36C48.36 58.36 44.61 54.43 44.61 49.59C44.61 44.74 48.36 40.81 53 40.81Z" fill="#53C1DE" fill-opacity="1.000000" fill-rule="nonzero"/>
</svg>
