<svg viewBox="0 0 64 64" xmlns="http://www.w3.org/2000/svg"><path d="m32 2c-12.7 0-23.5 7.9-27.9 19h55.8c-4.4-11.1-15.2-19-27.9-19z" fill="#42ade2"/><path d="m32 62c12.7 0 23.5-7.9 27.9-19h-55.8c4.4 11.1 15.2 19 27.9 19z" fill="#83bf4f"/><path d="m62 32c0-3.1-.5-6.2-1.4-9h-57.2c-.9 2.8-1.4 5.9-1.4 9s.5 6.2 1.4 9h57.2c.9-2.8 1.4-5.9 1.4-9" fill="#fff"/><g fill="#c94747"><path d="m59.9 21c.1.3.3.7.4 1s.2.7.3 1"/><path d="m60.3 22c-.1-.3-.3-.7-.4-1h-55.8c-.1.3-.3.7-.4 1s-.2.7-.3 1h57.2c-.1-.3-.2-.7-.3-1m-56.6 20c.1.3.3.7.4 1h55.8c.1-.3.3-.7.4-1s.2-.7.3-1h-57.2c.1.3.2.7.3 1"/></g><path d="m20.4 17.3c-2.4 0-4.3-1.9-4.3-4.3s1.9-4.3 4.3-4.3c.6 0 1.1.1 1.6.3-.8-.6-1.9-1-3-1-2.8 0-5 2.2-5 5s2.2 5 5 5c1.1 0 2.2-.4 3-1-.5.2-1 .3-1.6.3m4.3-2.1.4 1.1h1.1l-.9.6.3 1.1-.9-.7-.9.7.4-1.1-.9-.6h1.1zm4.3 0 .3 1.1h1.2l-.9.6.3 1.1-.9-.7-.9.7.3-1.1-.9-.6h1.1zm4.3 0 .3 1.1h1.1l-.9.6.4 1.1-.9-.7-1 .7.4-1.1-.9-.6h1.1zm4.2 0 .4 1.1h1.1l-.9.6.3 1.1-.9-.7-.9.7.3-1.1-.9-.6h1.2zm4.3 0 .3 1.1h1.2l-1 .6.4 1.1-.9-.7-.9.7.3-1.1-.9-.6h1.1zm-12.8-3.6.3 1.1h1.2l-.9.6.3 1.1-.9-.7-.9.7.3-1.1-.9-.6h1.1zm4.3 0 .3 1.1h1.1l-.9.6.4 1.1-.9-.7-1 .7.4-1.1-.9-.6h1.1zm4.2 0 .4 1.1h1.1l-.9.6.3 1.1-.9-.7-.9.7.3-1.1-.9-.6h1.2zm4.3 0 .3 1.1h1.2l-1 .6.4 1.1-.9-.7-.9.7.3-1.1-.9-.6h1.1zm-8.5-3.6.3 1.1h1.1l-.9.6.4 1.1-.9-.7-1 .7.4-1.1-.9-.6h1.1zm4.2 0 .4 1.1h1.1l-.9.6.3 1.1-.9-.7-.9.7.3-1.1-.9-.6h1.2zm4.3 0 .3 1.1h1.2l-1 .6.4 1.1-.9-.7-.9.7.3-1.1-.9-.6h1.1z" fill="#fff"/></svg>